<?xml version="1.0" encoding="UTF-8" standalone="no"?>
<svg
   xmlns:dc="http://purl.org/dc/elements/1.1/"
   xmlns:cc="http://creativecommons.org/ns#"
   xmlns:rdf="http://www.w3.org/1999/02/22-rdf-syntax-ns#"
   xmlns:svg="http://www.w3.org/2000/svg"
   xmlns="http://www.w3.org/2000/svg"
   viewBox="0 0 467.41333 175.38667"
   height="175.38667"
   width="467.41333"
   xml:space="preserve"
   id="svg2"
   version="1.1"><metadata
     id="metadata8"><rdf:RDF><cc:Work
         rdf:about=""><dc:format>image/svg+xml</dc:format><dc:type
           rdf:resource="http://purl.org/dc/dcmitype/StillImage" /></cc:Work></rdf:RDF></metadata><defs
     id="defs6" /><g
     transform="matrix(1.3333333,0,0,-1.3333333,0,175.38667)"
     id="g10"><g
       transform="scale(0.1)"
       id="g12"><path
         id="path14"
         style="fill:#000000;fill-opacity:1;fill-rule:nonzero;stroke:none"
         d="m 0,1091.77 h 223.586 v 223.586 H 0 Z" /><path
         id="path16"
         style="fill:#000000;fill-opacity:1;fill-rule:nonzero;stroke:none"
         d="M 0.304688,4.69922 H 223.28169 v 987.25 H 0.304688 Z" /><path
         id="path18"
         style="fill:#000000;fill-opacity:1;fill-rule:nonzero;stroke:none"
         d="M 1693.91,227.68 V 385.988 H 1247.29 V 227.68 Z m 178.91,764.269 V 4.69922 H 1068.36 V 610.66 h 625.55 v 158.317 h -625.55 v 222.972 h 804.46" /><path
         id="path20"
         style="fill:#000000;fill-opacity:1;fill-rule:nonzero;stroke:none"
         d="M 949.656,768.957 H 564.969 L 564.813,227.68 H 949.656 V 4.69922 H 455.598 L 341.984,118.262 V 1315.36 H 564.969 V 991.949 H 949.656 V 768.957" /><path
         id="path22"
         style="fill:#91ca00;fill-opacity:1;fill-rule:nonzero;stroke:none"
         d="m 1651.2,1315.34 156.84,-156.84 h 231.33 V 927.172 L 2196.22,770.328 V 1315.34 H 1651.2" /><path
         id="path24"
         style="fill:#aaaaaa;fill-opacity:1;fill-rule:nonzero;stroke:none"
         d="m 2248.01,417.707 c 0,-6.32 0.51,-12.066 1.52,-17.242 1.01,-5.18 2.9,-9.535 5.69,-13.07 2.77,-3.543 6.49,-6.321 11.17,-8.336 4.68,-2.028 10.55,-3.032 17.62,-3.032 8.34,0 15.85,2.707 22.54,8.145 6.68,5.43 10.04,13.832 10.04,25.199 0,6.059 -0.82,11.301 -2.46,15.723 -1.64,4.418 -4.35,8.394 -8.14,11.933 -3.79,3.536 -8.79,6.758 -14.97,9.664 -6.19,2.899 -13.83,5.872 -22.92,8.907 -12.13,4.035 -22.61,8.457 -31.46,13.261 -8.84,4.793 -16.23,10.418 -22.16,16.86 -5.93,6.441 -10.3,13.886 -13.07,22.351 -2.78,8.465 -4.17,18.25 -4.17,29.368 0,26.773 7.45,46.73 22.35,59.867 14.9,13.129 35.37,19.703 61.39,19.703 12.12,0 23.29,-1.328 33.52,-3.981 10.24,-2.648 19.09,-6.949 26.53,-12.879 7.46,-5.937 13.26,-13.515 17.44,-22.734 4.16,-9.226 6.25,-20.273 6.25,-33.156 v -7.578 h -52.29 c 0,12.883 -2.28,22.793 -6.83,29.742 -4.53,6.949 -12.12,10.422 -22.73,10.422 -6.06,0 -11.12,-0.887 -15.15,-2.653 -4.05,-1.769 -7.27,-4.105 -9.66,-7.007 -2.41,-2.911 -4.04,-6.254 -4.93,-10.043 -0.89,-3.789 -1.33,-7.707 -1.33,-11.746 0,-8.332 1.77,-15.344 5.31,-21.028 3.54,-5.683 11.11,-10.929 22.74,-15.722 l 42.06,-18.192 c 10.35,-4.543 18.8,-9.281 25.37,-14.207 6.56,-4.926 11.81,-10.23 15.72,-15.914 3.93,-5.684 6.64,-11.937 8.15,-18.754 1.52,-6.82 2.28,-14.398 2.28,-22.734 0,-28.551 -8.28,-49.321 -24.82,-62.328 C 2332.06,343.504 2309.02,337 2279.46,337 c -30.81,0 -52.86,6.691 -66.12,20.082 -13.26,13.387 -19.89,32.586 -19.89,57.594 v 10.988 h 54.56 v -7.957" /><path
         id="path26"
         style="fill:#aaaaaa;fill-opacity:1;fill-rule:nonzero;stroke:none"
         d="m 2513.05,563.395 c -4.68,8.96 -13.2,13.449 -25.58,13.449 -6.81,0 -12.44,-1.832 -16.86,-5.496 -4.42,-3.66 -7.89,-9.598 -10.42,-17.805 -2.52,-8.215 -4.3,-18.949 -5.31,-32.207 -1,-13.266 -1.51,-29.492 -1.51,-48.688 0,-20.464 0.69,-37.007 2.08,-49.64 1.39,-12.629 3.54,-22.414 6.45,-29.363 2.9,-6.95 6.56,-11.622 10.98,-14.02 4.43,-2.402 9.53,-3.598 15.35,-3.598 4.8,0 9.28,0.817 13.45,2.461 4.17,1.641 7.77,4.926 10.8,9.852 3.03,4.926 5.43,11.871 7.2,20.84 1.77,8.965 2.66,20.777 2.66,35.425 h 54.56 c 0,-14.648 -1.15,-28.546 -3.42,-41.675 -2.27,-13.137 -6.51,-24.629 -12.69,-34.481 -6.19,-9.851 -14.91,-17.558 -26.14,-23.109 -11.25,-5.559 -25.83,-8.34 -43.77,-8.34 -20.46,0 -36.75,3.285 -48.88,9.852 -12.12,6.566 -21.4,16.039 -27.85,28.418 -6.43,12.371 -10.6,27.148 -12.5,44.332 -1.89,17.171 -2.84,36.117 -2.84,56.836 0,20.457 0.95,39.339 2.84,56.644 1.9,17.301 6.07,32.137 12.5,44.52 6.45,12.375 15.73,22.031 27.85,28.988 12.13,6.941 28.42,10.418 48.88,10.418 19.45,0 34.8,-3.164 46.04,-9.473 11.24,-6.316 19.63,-14.34 25.2,-24.062 5.55,-9.727 9.03,-20.211 10.41,-31.446 1.39,-11.246 2.09,-21.789 2.09,-31.64 h -54.56 c 0,19.703 -2.34,34.039 -7.01,43.008" /><path
         id="path28"
         style="fill:#aaaaaa;fill-opacity:1;fill-rule:nonzero;stroke:none"
         d="m 2724.66,443.094 -26.14,121.625 h -0.76 l -26.15,-121.625 z m 7.2,168.605 71.61,-270.531 h -56.83 l -12.51,57.211 h -71.99 l -12.5,-57.211 h -56.84 l 71.62,270.531 h 67.44" /><path
         id="path30"
         style="fill:#aaaaaa;fill-opacity:1;fill-rule:nonzero;stroke:none"
         d="m 2831.89,611.699 h 54.56 v -225.82 h 96.62 v -44.711 h -151.18 v 270.531" /><path
         id="path32"
         style="fill:#aaaaaa;fill-opacity:1;fill-rule:nonzero;stroke:none"
         d="m 3013.76,341.168 h 54.5586 V 611.699 H 3013.76 Z" /><path
         id="path34"
         style="fill:#aaaaaa;fill-opacity:1;fill-rule:nonzero;stroke:none"
         d="m 3243.37,426.422 h 0.75 v 185.277 h 50.02 V 341.168 H 3232 l -66.69,189.449 h -0.76 V 341.168 h -50.01 v 270.531 h 62.9 l 65.93,-185.277" /><path
         id="path36"
         style="fill:#aaaaaa;fill-opacity:1;fill-rule:nonzero;stroke:none"
         d="m 3448.54,546.91 c -1.14,5.305 -2.98,10.164 -5.5,14.59 -2.53,4.414 -5.74,8.082 -9.66,10.984 -3.92,2.903 -8.66,4.36 -14.21,4.36 -13.13,0 -22.61,-7.332 -28.42,-21.977 -5.81,-14.652 -8.72,-38.902 -8.72,-72.746 0,-16.172 0.51,-30.82 1.53,-43.957 1,-13.133 2.84,-24.312 5.49,-33.531 2.65,-9.223 6.44,-16.293 11.36,-21.219 4.93,-4.926 11.31,-7.387 19.14,-7.387 3.27,0 6.88,0.883 10.79,2.649 3.92,1.769 7.58,4.422 11,7.961 3.41,3.535 6.25,8.015 8.53,13.453 2.26,5.422 3.4,11.801 3.4,19.129 v 27.664 h -35.99 v 40.164 h 88.28 V 341.168 h -40.17 v 25.008 h -0.75 c -6.57,-10.61 -14.46,-18.129 -23.68,-22.547 -9.23,-4.414 -20.27,-6.629 -33.16,-6.629 -16.67,0 -30.25,2.906 -40.73,8.715 -10.49,5.808 -18.7,14.777 -24.63,26.902 -5.93,12.125 -9.92,27.09 -11.93,44.899 -2.03,17.808 -3.04,38.457 -3.04,61.953 0,22.73 1.46,42.683 4.37,59.863 2.9,17.176 7.89,31.508 14.96,43.008 7.07,11.488 16.41,20.137 28.04,25.953 11.62,5.809 26.14,8.715 43.57,8.715 29.8,0 51.28,-7.387 64.41,-22.168 13.14,-14.777 19.71,-35.934 19.71,-63.461 h -52.29 c 0,5.047 -0.57,10.226 -1.7,15.531" /><path
         id="path38"
         style="fill:#aaaaaa;fill-opacity:1;fill-rule:nonzero;stroke:none"
         d="m 2369.88,229.988 h -59.11 V 4.17188 h -54.55 V 229.988 h -59.11 v 44.711 h 172.77 v -44.711" /><path
         id="path40"
         style="fill:#aaaaaa;fill-opacity:1;fill-rule:nonzero;stroke:none"
         d="m 2552.14,229.988 h -96.62 v -63.66 h 90.94 v -44.699 h -90.94 V 48.8789 h 100.41 V 4.17188 H 2400.96 V 274.699 h 151.18 v -44.711" /><path
         id="path42"
         style="fill:#aaaaaa;fill-opacity:1;fill-rule:nonzero;stroke:none"
         d="m 2699.34,226.391 c -4.68,8.961 -13.21,13.449 -25.58,13.449 -6.81,0 -12.44,-1.828 -16.86,-5.488 -4.42,-3.672 -7.89,-9.602 -10.42,-17.813 -2.52,-8.211 -4.3,-18.949 -5.31,-32.211 -1,-13.258 -1.51,-29.488 -1.51,-48.68 0,-20.468 0.69,-37.0074 2.08,-49.6363 1.39,-12.6406 3.54,-22.4219 6.45,-29.3711 2.9,-6.9492 6.56,-11.6211 10.98,-14.0195 4.43,-2.4023 9.53,-3.6016 15.35,-3.6016 4.8,0 9.28,0.8203 13.45,2.4688 4.17,1.6406 7.76,4.9219 10.8,9.8515 3.03,4.9219 5.43,11.8711 7.2,20.8399 1.77,8.9609 2.66,20.7695 2.66,35.4223 h 54.56 c 0,-14.6528 -1.15,-28.5434 -3.42,-41.6723 -2.27,-13.1406 -6.51,-24.6289 -12.69,-34.4805 -6.19,-9.8476 -14.91,-17.5703 -26.14,-23.10936 C 2709.69,2.78125 2695.11,0 2677.17,0 c -20.46,0 -36.75,3.28906 -48.88,9.85156 -12.12,6.55864 -21.4,16.03904 -27.85,28.41794 -6.43,12.3711 -10.6,27.1524 -12.5,44.3321 -1.89,17.1679 -2.84,36.1174 -2.84,56.8284 0,20.461 0.95,39.34 2.84,56.648 1.9,17.301 6.07,32.141 12.5,44.524 6.45,12.367 15.73,22.027 27.85,28.988 12.13,6.941 28.42,10.422 48.88,10.422 19.45,0 34.79,-3.172 46.04,-9.481 11.24,-6.32 19.63,-14.34 25.2,-24.062 5.55,-9.731 9.02,-20.207 10.41,-31.449 1.39,-11.239 2.09,-21.782 2.09,-31.641 h -54.56 c 0,19.711 -2.34,34.043 -7.01,43.012" /><path
         id="path44"
         style="fill:#aaaaaa;fill-opacity:1;fill-rule:nonzero;stroke:none"
         d="M 2856.39,274.699 V 171.262 h 63.65 v 103.437 h 54.56 V 4.17188 h -54.56 V 124.281 h -63.65 V 4.17188 h -54.56 V 274.699 h 54.56" /></g></g></svg>