<?xml version="1.0" encoding="utf-8"?>
<!-- Generator: Adobe Illustrator 16.0.0, SVG Export Plug-In . SVG Version: 6.00 Build 0)  -->
<!DOCTYPE svg PUBLIC "-//W3C//DTD SVG 1.1//EN" "http://www.w3.org/Graphics/SVG/1.1/DTD/svg11.dtd">
<svg version="1.1" id="Layer_1" xmlns="http://www.w3.org/2000/svg" xmlns:xlink="http://www.w3.org/1999/xlink" x="0px" y="0px"
	 width="200px" height="90px" viewBox="296 261 200 90" enable-background="new 296 261 200 90" xml:space="preserve">
<g>
	<path d="M313.226,306.898c0,3.182-1.306,7.457-5.163,7.457c-1.935,0-3.073-0.996-3.073-2.977
		C304.99,307.641,310.467,306.898,313.226,306.898 M318.76,317.85v-17.675c0-5.73-3.76-7.71-9.028-7.71
		c-5.152,0-9.444,2.189-9.444,7.874h5.644c0-2.455,1.305-3.804,3.8-3.804c2.863,0,3.494,2.076,3.494,4.529v2.453
		c-5.632,0.154-13.868,0.939-13.868,8.396c0,4.221,3.34,6.516,7.297,6.516c2.713,0,5.214-0.889,6.471-3.443h0.1v2.865H318.76
		 M335.916,301.535h6.153c0-6.102-3.383-9.07-9.438-9.07c-7.443,0-11.366,4.686-11.366,11.878c0,8.654,4.433,14.085,13.291,14.085
		c2.454,0,4.903-0.412,7.252-1.148v-3.545c-1.36,0.469-2.767,0.623-4.164,0.623c-6.584,0-10.225-4.797-10.225-11.048
		c0-2.971,1.094-6.774,4.746-6.774C335.186,296.535,335.916,298.982,335.916,301.535 M358.148,301.535h6.158
		c0-6.102-3.396-9.07-9.44-9.07c-7.453,0-11.366,4.686-11.366,11.878c0,8.654,4.428,14.085,13.293,14.085
		c2.448,0,4.905-0.412,7.245-1.148v-3.545c-1.351,0.469-2.762,0.623-4.168,0.623c-6.566,0-10.226-4.797-10.226-11.048
		c0-2.971,1.104-6.774,4.75-6.774C357.416,296.535,358.148,298.982,358.148,301.535 M380.834,300.437h-9.071
		c0.265-2.505,2.186-4.283,4.669-4.283C379.102,296.152,380.834,297.78,380.834,300.437 M386.308,303.938v-1.414
		c0-6.046-3.128-10.06-9.438-10.06c-7.398,0-10.641,4.64-10.641,11.679c0,8.175,3.699,14.285,12.51,14.285
		c2.35,0,4.707-0.258,6.928-0.992v-4.012c-1.461,0.518-3.171,0.934-4.733,0.934c-5.628,0-9.341-5.156-9.341-10.419H386.308
		 M403.457,317.85h5.8v-17.202c0-4.27-2-8.183-6.737-8.183c-3.548,0-6.041,2.038-7.351,5.209h-0.103v-4.65h-5.799v24.826h5.799
		v-10.738c0-3.343,1.67-9.228,5.825-9.228c0.597,0,1.25,0.048,1.683,0.474c0.977,0.934,0.883,4.11,0.883,5.313V317.85
		 M421.28,297.049h7.371v-4.027h-7.371v-8.226l-5.763,2.345v5.881h-4.854v4.027h4.854v14.542c0,5.166,2.528,6.834,7.603,6.834
		c1.571,0,3.175-0.15,4.729-0.412v-4.072c-0.871,0.217-1.754,0.414-2.654,0.414c-3.607,0-3.915-2.656-3.915-5.582V297.049
		 M445.396,317.85h5.787v-24.826h-5.787v10.745c0,3.343-1.671,9.23-5.85,9.23c-0.564,0-1.254-0.041-1.67-0.461
		c-0.995-0.943-0.883-4.125-0.883-5.318v-14.194h-5.779v17.218c0,4.279,1.963,8.188,6.719,8.188c3.503,0,6.056-2.09,7.362-5.209h0.1
		L445.396,317.85 M460.622,306.957c0-5.839,2.187-8.441,8.125-8.441v-6.051c-4.162,0-6.104,1.722-8.028,5.153h-0.097v-4.594h-5.798
		v24.826h5.798V306.957 M484.518,300.437h-9.074c0.262-2.505,2.188-4.283,4.686-4.283
		C482.796,296.152,484.518,297.78,484.518,300.437 M489.99,303.938v-1.414c0-6.046-3.124-10.06-9.439-10.06
		c-7.4,0-10.635,4.64-10.635,11.679c0,8.175,3.703,14.285,12.506,14.285c2.35,0,4.699-0.258,6.939-0.992v-4.012
		c-1.457,0.518-3.181,0.934-4.732,0.934c-5.646,0-9.346-5.156-9.346-10.419H489.99"/>
	<path d="M410.656,263.911v4.082c0,0,11.558,4.478,13.212,5.123c-1.654,0.635-13.212,5.091-13.212,5.091v4.076l18.001-7.312v-3.742
		L410.656,263.911"/>
	<path d="M307.28,341.988v-6.285h-5.499v6.285h-1.505V328.68h1.505v5.768h5.499v-5.768h1.506v13.311h-1.506V341.988z
		 M310.865,328.68h1.737v1.736h-1.737V328.68z M311.079,332.805h1.312v9.188h-1.312V332.805z M316.795,346.008
		c-0.888,0-1.641-0.137-2.49-0.312v-1.332c0.734,0.35,1.485,0.545,2.294,0.545c2.126,0,2.779-1.082,2.779-3.053v-1.621h-0.037
		c-0.348,1.104-1.294,1.754-2.432,1.754c-2.528,0-3.106-2.467-3.106-4.529c0-1.988,0.636-4.863,3.145-4.863
		c1.081,0,2.104,0.637,2.393,1.719h0.037v-1.51h1.313v9.205C320.691,344.613,319.437,346.008,316.795,346.008 M317.216,333.695
		c-1.677,0-1.908,2.584-1.908,3.781c0,1.213,0.231,3.414,1.872,3.414c1.677,0,2.198-2.354,2.198-3.666
		C319.378,335.953,318.857,333.695,317.216,333.695 M327.923,341.988v-5.09c0-1.043,0.154-2.992-1.35-2.992
		c-1.835,0-2.606,2.855-2.606,4.305v3.777h-1.313V328.68h1.313v6.25h0.039c0.462-1.408,1.274-2.334,2.875-2.334
		c1.62,0,2.354,1.389,2.354,2.838v6.557h-1.312V341.988z M338.773,342.203c-1.178,0-2.066-0.598-2.414-1.717h-0.038v5.635h-1.311
		v-13.316h1.311v1.568h0.038c0.311-1.064,1.294-1.777,2.395-1.777c2.643,0,3.144,2.586,3.144,4.729
		C341.898,339.311,341.281,342.203,338.773,342.203 M338.482,333.695c-1.659,0-2.161,2.391-2.161,3.662
		c0,1.297,0.386,3.748,2.124,3.748c1.794,0,1.948-2.762,1.948-4.035C340.393,335.799,340.162,333.695,338.482,333.695
		 M344.463,336.529v0.541c0,2.01,1.005,4.035,3.262,4.035c0.635,0,1.195-0.098,1.813-0.254v1.082
		c-0.675,0.213-1.389,0.27-2.102,0.27c-3.187,0-4.479-2.141-4.479-5.111c0-2.393,0.888-4.496,3.589-4.496
		c2.142,0,3.203,1.467,3.203,3.49v0.443H344.463z M346.489,333.695c-1.081,0-1.736,0.732-1.932,1.736h3.688
		C348.246,334.43,347.492,333.695,346.489,333.695 M352.643,338.189v3.799h-1.312v-9.184h1.312v1.777h0.038
		c0.579-1.332,1.602-1.988,3.067-1.988v1.41C353.376,334.004,352.643,336.186,352.643,338.189 M361.538,329.721
		c-2.084,0-1.929,1.504-1.929,3.084h2.642v1.102h-2.642v8.084h-1.312v-8.084h-1.543v-1.102h1.543v-1.27c0-1.91,1.1-2.914,3.01-2.914
		c0.52,0,1.04,0.059,1.563,0.174v1.176C362.426,329.816,362.002,329.721,361.538,329.721 M366.4,342.203
		c-2.836,0-3.742-2.314-3.742-4.783c0-2.471,0.906-4.824,3.742-4.824c2.855,0,3.782,2.334,3.782,4.824
		C370.183,339.908,369.256,342.203,366.4,342.203 M366.4,333.695c-1.907,0-2.236,2.24-2.236,3.703c0,1.467,0.329,3.707,2.236,3.707
		c1.931,0,2.277-2.221,2.277-3.707C368.678,335.916,368.312,333.695,366.4,333.695 M373.097,338.189v3.799h-1.31v-9.184h1.31v1.777
		h0.04c0.58-1.332,1.603-1.988,3.069-1.988v1.41C373.832,334.004,373.097,336.186,373.097,338.189 M387.245,341.988v-5.09
		c0-1.043,0.153-2.992-1.351-2.992c-1.699,0-2.298,3.031-2.298,4.305v3.777h-1.312v-5.09c0-1.043,0.156-2.992-1.35-2.992
		c-1.68,0-2.296,3.031-2.296,4.305v3.777h-1.313v-9.184h1.313v2.125h0.038c0.367-1.312,1.061-2.336,2.567-2.336
		c1.369,0,2.218,0.734,2.314,2.104h0.037c0.386-1.176,1.312-2.104,2.605-2.104c1.622,0,2.354,1.389,2.354,2.838v6.557H387.245
		L387.245,341.988z M395.428,341.988v-1.213h-0.037c-0.503,0.963-1.794,1.428-2.815,1.428c-1.584,0-2.47-1.002-2.47-2.564
		c0-2.104,2.681-2.855,4.379-2.855c0.309,0,0.599,0,0.906-0.059v-0.193c0-1.367,0.098-2.834-1.736-2.834
		c-1.079,0-1.738,0.365-1.87,1.467h-1.469c0.041-1.855,1.659-2.568,3.302-2.568c2.082,0,3.085,0.906,3.085,2.955v6.439h-1.274
		V341.988z M394.619,337.826c-1.177,0-3.01,0.479-3.01,1.947c0,0.77,0.52,1.332,1.292,1.332c0.927,0,1.758-0.602,2.143-1.43
		c0.306-0.695,0.347-1.08,0.347-1.852h-0.771V337.826z M404.034,341.988v-5.09c0-1.043,0.152-2.992-1.353-2.992
		c-1.829,0-2.605,2.855-2.605,4.305v3.777h-1.311v-9.184h1.311v2.125h0.039c0.463-1.408,1.274-2.336,2.877-2.336
		c1.62,0,2.351,1.389,2.351,2.838v6.557H404.034z M412.268,335.605c0-1.062-0.462-1.91-1.642-1.91c-1.676,0-2.177,1.832-2.177,3.203
		c0,2.373,1.042,4.207,3.646,4.207c0.503,0,1.005-0.041,1.485-0.193v1.039c-0.636,0.195-1.234,0.252-1.911,0.252
		c-3.161,0-4.727-1.949-4.727-5.016c0-2.51,0.929-4.594,3.743-4.594c1.951,0,3.146,1.023,3.146,3.012H412.268L412.268,335.605z
		 M415.898,336.529v0.541c0,2.01,1.002,4.035,3.262,4.035c0.636,0,1.193-0.098,1.812-0.254v1.082
		c-0.673,0.213-1.387,0.27-2.105,0.27c-3.183,0-4.472-2.141-4.472-5.111c0-2.393,0.884-4.496,3.589-4.496
		c2.141,0,3.2,1.467,3.2,3.49v0.443H415.898z M417.924,333.695c-1.08,0-1.738,0.732-1.929,1.736h3.684
		C419.679,334.43,418.925,333.695,417.924,333.695 M422.236,340.062h1.928v1.928h-1.928V340.062z M434.73,341.627
		c-0.887,0.309-1.852,0.361-2.777,0.361h-2.509V328.68h2.991c4.282,0,5.461,2.777,5.461,6.615
		C437.896,337.826,437.434,340.701,434.73,341.627 M433.98,330.221c-0.678-0.25-1.449-0.287-2.184-0.287h-0.849v10.803h1.022
		c0.753,0,1.562-0.055,2.259-0.363c1.851-0.852,2.025-3.301,2.025-5.057C436.257,333.443,436.063,330.953,433.98,330.221
		 M440.595,336.529v0.541c0,2.01,1.005,4.035,3.266,4.035c0.636,0,1.192-0.098,1.81-0.254v1.082c-0.673,0.213-1.386,0.27-2.103,0.27
		c-3.185,0-4.478-2.141-4.478-5.111c0-2.393,0.891-4.496,3.589-4.496c2.145,0,3.206,1.467,3.206,3.49v0.443H440.595z
		 M442.621,333.695c-1.08,0-1.735,0.732-1.931,1.736h3.688C444.378,334.43,443.626,333.695,442.621,333.695 M447.589,328.68h1.313
		v13.312h-1.313V328.68z M451.026,328.68h1.733v1.736h-1.733V328.68z M451.238,332.805h1.312v9.188h-1.312V332.805z
		 M458.393,341.988h-1.325l-3.479-9.184h1.41l2.701,7.258h0.037l2.354-7.258h1.411L458.393,341.988z M463.293,336.529v0.541
		c0,2.01,1.002,4.035,3.262,4.035c0.637,0,1.194-0.098,1.812-0.254v1.082c-0.677,0.213-1.388,0.27-2.101,0.27
		c-3.187,0-4.478-2.141-4.478-5.111c0-2.393,0.888-4.496,3.586-4.496c2.142,0,3.205,1.467,3.205,3.49v0.443H463.293z
		 M465.32,333.695c-1.083,0-1.737,0.732-1.933,1.736h3.684C467.071,334.43,466.322,333.695,465.32,333.695 M471.574,338.189v3.799
		h-1.308v-9.184h1.308v1.777h0.041c0.58-1.332,1.602-1.988,3.07-1.988v1.41C472.311,334.004,471.574,336.186,471.574,338.189
		 M476.699,336.529v0.541c0,2.01,1.008,4.035,3.265,4.035c0.633,0,1.196-0.098,1.812-0.254v1.082
		c-0.671,0.213-1.391,0.27-2.102,0.27c-3.186,0-4.479-2.141-4.479-5.111c0-2.393,0.888-4.496,3.589-4.496
		c2.142,0,3.205,1.467,3.205,3.49v0.443H476.699z M478.729,333.695c-1.081,0-1.739,0.732-1.936,1.736h3.689
		C480.484,334.43,479.73,333.695,478.729,333.695 M488.681,341.988v-1.561h-0.039c-0.308,1.062-1.295,1.775-2.393,1.775
		c-2.64,0-3.142-2.586-3.142-4.729c0-1.986,0.614-4.881,3.122-4.881c1.193,0,2.025,0.598,2.411,1.719h0.039v-5.635h1.314v13.311
		H488.681L488.681,341.988z M486.546,333.695c-1.795,0-1.949,2.76-1.949,4.031s0.21,3.379,1.908,3.379
		c1.641,0,2.161-2.395,2.161-3.666C488.666,336.145,488.282,333.695,486.546,333.695 M491.695,340.062h1.928v1.928h-1.928V340.062z"
		/>
</g>
</svg>
