<?xml version="1.0" encoding="UTF-8" standalone="no"?>
<svg
   xmlns:dc="http://purl.org/dc/elements/1.1/"
   xmlns:cc="http://creativecommons.org/ns#"
   xmlns:rdf="http://www.w3.org/1999/02/22-rdf-syntax-ns#"
   xmlns:svg="http://www.w3.org/2000/svg"
   xmlns="http://www.w3.org/2000/svg"
   viewBox="0 0 303.75 296.25"
   height="296.25"
   width="303.75"
   xml:space="preserve"
   version="1.1"
   id="svg2"><metadata
     id="metadata8"><rdf:RDF><cc:Work
         rdf:about=""><dc:format>image/svg+xml</dc:format><dc:type
           rdf:resource="http://purl.org/dc/dcmitype/StillImage" /><dc:title></dc:title></cc:Work></rdf:RDF></metadata><defs
     id="defs6"><clipPath
       id="clipPath18"
       clipPathUnits="userSpaceOnUse"><path
         id="path20"
         d="m 0,3.37891 2430,0 0,2359.99999 -2430,0 L 0,3.37891 Z" /></clipPath></defs><g
     transform="matrix(1.25,0,0,-1.25,0,296.25)"
     id="g10"><g
       transform="scale(0.1,0.1)"
       id="g12"><g
         id="g14"><g
           clip-path="url(#clipPath18)"
           id="g16"><path
             id="path22"
             style="fill:#000000;fill-opacity:1;fill-rule:nonzero;stroke:none"
             d="m 2133.67,1570.6 293.95,-293.98 0,293.98 -293.95,0 z" /><path
             id="path24"
             style="fill:#000000;fill-opacity:1;fill-rule:nonzero;stroke:none"
             d="m 1681.09,1570.6 -383.43,0 486.48,-486.52 -452.54,0 -486.479,486.52 -407.461,0 486.481,-486.52 -452.539,0 -420.1528,420.19 c -5,-12.34 -7.8203,-25.78 -7.8203,-39.88 l 0,-1321.05 C 43.6289,69.6992 103.32,10.0195 176.949,10.0195 l 2117.351,0 c 73.63,0 133.32,59.6797 133.32,133.3205 l 0,940.74 -260,0 -486.53,486.52 z" /><path
             id="path26"
             style="fill:#000000;fill-opacity:1;fill-rule:nonzero;stroke:none"
             d="m 2026.56,2363.38 -403.24,-58.44 -411.72,-551.21 403.24,58.44 411.72,551.21 z" /><path
             id="path28"
             style="fill:#000000;fill-opacity:1;fill-rule:nonzero;stroke:none"
             d="m 1175.43,2240.06 -379.45,-54.97 -411.718,-551.25 379.449,55 411.719,551.22 z" /><path
             id="path30"
             style="fill:#000000;fill-opacity:1;fill-rule:nonzero;stroke:none"
             d="m 2399.77,2033.14 -35.79,247.23 -301.28,-403.32 247.22,35.82 c 58.05,8.4 98.28,62.26 89.85,120.27 z" /><path
             id="path32"
             style="fill:#000000;fill-opacity:1;fill-rule:nonzero;stroke:none"
             d="M 348.09,2120.21 90.9805,2082.95 c -58.0508,-8.4 -98.28128,-62.27 -89.89066,-120.32 l 32.69926,-225.62 4.5703,-31.49 106.3706,142.43 203.36,272.26 z" /></g></g></g></g></svg>