<?xml version="1.0" encoding="utf-8"?>
<!-- Generator: Adobe Illustrator 20.1.0, SVG Export Plug-In . SVG Version: 6.00 Build 0)  -->
<svg version="1.1" id="Layer_1" xmlns="http://www.w3.org/2000/svg" xmlns:xlink="http://www.w3.org/1999/xlink" x="0px" y="0px"
	 viewBox="0 0 500 500" style="enable-background:new 0 0 500 500;" xml:space="preserve">
<style type="text/css">
	.st0{fill:#FFFFFF;}
	.st1{fill:#FDFEFE;}
	.st2{clip-path:url(#SVGID_2_);fill:#FFFFFF;}
	.st3{fill:#FCFAFC;}
	.st4{fill:none;stroke:#FCFAFC;stroke-width:35;stroke-linecap:square;stroke-miterlimit:10;}
</style>
<g>
	<g>
		<g>
			<path class="st1" d="M258.8,449.3c-106.4,0-192.9-86.5-192.9-192.9S152.4,63.5,258.8,63.5S451.7,150,451.7,256.4
				S365.1,449.3,258.8,449.3z M258.8,112.3c-79.5,0-144.1,64.6-144.1,144.1s64.6,144.1,144.1,144.1s144.1-64.6,144.1-144.1
				S338.2,112.3,258.8,112.3z"/>
		</g>
		<g>
			<g>
				<circle class="st1" cx="255.8" cy="188.8" r="22.9"/>
			</g>
			<g>
				<polygon class="st1" points="290.3,346.9 278.8,346.9 238.8,346.9 227.2,346.9 227.2,316.3 238.8,316.3 238.8,264.1 
					227.3,264.1 227.3,233.5 238.8,233.5 273,233.5 278.8,233.5 278.8,316.3 290.3,316.3 				"/>
			</g>
		</g>
	</g>
</g>
</svg>
