<?xml version="1.0" encoding="utf-8"?>
<!-- Generator: Adobe Illustrator 20.1.0, SVG Export Plug-In . SVG Version: 6.00 Build 0)  -->
<svg version="1.1" id="Layer_1" xmlns="http://www.w3.org/2000/svg" xmlns:xlink="http://www.w3.org/1999/xlink" x="0px" y="0px"
	 viewBox="0 0 500 500" style="enable-background:new 0 0 500 500;" xml:space="preserve">
<style type="text/css">
	.st0{fill:#FFFFFF;}
	.st1{fill:#FDFEFE;}
	.st2{clip-path:url(#SVGID_2_);fill:#FFFFFF;}
	.st3{fill:#FCFAFC;}
	.st4{fill:none;stroke:#FCFAFC;stroke-width:35;stroke-linecap:square;stroke-miterlimit:10;}
</style>
<g>
	<path class="st0" d="M395.3,189.8l52.8,51.7v-51.7H395.3z M401.4,189.8"/>
	<path class="st0" d="M329.4,189.8l-66.2,0l77.4,77.4l-66.7,0l-77.4-77.4h-64.8l77.4,77.4h-62.6L69,189.8c-0.8,2,0,14.6,0,16.9
		v210.1c0,11.7,9.5,21.2,21.2,21.2h336.8c11.7,0,21.2-9.5,21.2-21.2V267.2h-41.4L329.4,189.8z M329.4,189.8"/>
	<path class="st0" d="M384.3,63.7l-69.2,10.1l-65.5,87.7l69.2-10.1L384.3,63.7z M384.3,63.7"/>
	<path class="st0" d="M251,81.3L185.1,91l-65.5,87.7l65.9-9.7L251,81.3z M251,81.3"/>
	<g>
		<defs>
			<rect id="SVGID_1_" x="62" y="63.7" width="386.3" height="375.3"/>
		</defs>
		<use xlink:href="#SVGID_1_"  style="overflow:visible;fill:#FFFFFF;"/>
		<clipPath id="SVGID_2_">
			<use xlink:href="#SVGID_1_"  style="overflow:visible;"/>
		</clipPath>
		<path class="st2" d="M443.7,116.2L436.4,66L380,142.3l49.4-6.9C438.6,134,445,125.5,443.7,116.2L443.7,116.2z M443.7,116.2"/>
		<path class="st2" d="M123.8,101.4l-47.3,6.9c-9.2,1.3-15.6,9.9-14.3,19.1l5.2,35.9l1.2,8.3l19.6-25L123.8,101.4z M136.2,101"/>
	</g>
</g>
</svg>
