<svg id="Layer_1" data-name="Layer 1" xmlns="http://www.w3.org/2000/svg" viewBox="0 0 500 500"><defs><style>.cls-1{fill:#fff;}</style></defs><title>Icons_web</title><path class="cls-1" d="M395.34,189.81l52.79,51.7v-51.7Zm6,0"/><path class="cls-1" d="M329.4,189.81l-66.24,0,77.37,77.38-66.71,0-77.37-77.38h-64.8L209,267.19H146.42L69,189.81c-.8,2,0,14.65,0,16.89V416.81A21.2,21.2,0,0,0,90.18,438H426.93a21.2,21.2,0,0,0,21.2-21.2V267.19H406.78Zm0,0"/><path class="cls-1" d="M384.35,63.72,315.11,73.82l-65.48,87.67,69.23-10.09Zm0,0"/><path class="cls-1" d="M251,81.33,185.07,91l-65.48,87.67L185.5,169Zm0,0"/><path class="cls-1" d="M443.7,116.24,436.43,66,380,142.29l49.39-6.92a16.88,16.88,0,0,0,14.29-19.13Zm0,0"/><path class="cls-1" d="M123.76,101.38,76.5,108.32a16.89,16.89,0,0,0-14.3,19.14l5.2,35.88,1.21,8.35,19.64-25Zm12.46-.38"/></svg>