<?xml version="1.0" encoding="utf-8"?>
<!-- Generator: Adobe Illustrator 20.1.0, SVG Export Plug-In . SVG Version: 6.00 Build 0)  -->
<svg version="1.1" id="Layer_1" xmlns="http://www.w3.org/2000/svg" xmlns:xlink="http://www.w3.org/1999/xlink" x="0px" y="0px"
	 viewBox="0 0 500 500" style="enable-background:new 0 0 500 500;" xml:space="preserve">
<style type="text/css">
	.st0{fill:#FFFFFF;}
	.st1{fill:#FDFEFE;}
	.st2{clip-path:url(#SVGID_2_);fill:#FFFFFF;}
	.st3{fill:#FCFAFC;}
	.st4{fill:none;stroke:#FCFAFC;stroke-width:35;stroke-linecap:square;stroke-miterlimit:10;}
</style>
<g>
	<g id="Game_Pad">
		<g>
			<path class="st0" d="M468.2,229.3c-21.2-97.1-51.1-121-69.3-130.6c-29.1-15.4-62.9-6.4-74.1-0.6c-12.7,6.6-21.3,19-34.2,24.4
				c-14.9,6.2-35.3,7.9-50.6,0.4c-12.2-6-22.9-18.8-37.7-24.5c-18.7-7.2-49.9-17.3-80.7,4.8c-7.3,5.2-59.3,48.8-74.9,185.1
				c-9.6,84,36.4,111,34.7,109.8c11.8,8.5,38.4,22.8,74.3,0.4c24-15,43.5-44.7,43.5-44.7s8.7-16.5,20.2-23.5
				c8.2-5,20.4-1.2,20.4-1.2h43.2c0,0,13.7-1.7,23.4,2.5c9.4,4.1,14.6,14.2,14.6,14.2s28.5,36.8,55.8,55.6
				c11.6,8,58.3,17.2,82.5-12.3C475.1,369.6,485.8,310.3,468.2,229.3z M237.2,220.7c0,7.4-5.9,13.4-13.1,13.4h-32.7v33.4
				c0,7.4-5.9,13.4-13.1,13.4h-9.8c-7.2,0-13.1-6-13.1-13.4V234h-32.8c-7.2,0-13.1-6-13.1-13.4v-10c0-7.4,5.9-13.4,13.1-13.4h32.7
				v-33.4c0-7.4,5.9-13.4,13.1-13.4h9.8c7.2,0,13.1,6,13.1,13.4v33.4h32.7c7.2,0,13.1,6,13.1,13.4L237.2,220.7L237.2,220.7z
				 M329.5,267.4c-13.6,0-24.6-11.2-24.6-25.1c0-13.8,11-25,24.6-25s24.6,11.2,24.6,25C354,256.2,343,267.4,329.5,267.4z
				 M374.5,211.8c-13.4,0-24.3-11.1-24.3-24.8c0-13.7,10.9-24.8,24.3-24.8c13.4,0,24.3,11.1,24.3,24.8
				C398.8,200.7,387.9,211.8,374.5,211.8z"/>
		</g>
	</g>
</g>
</svg>
