<?xml version="1.0" encoding="utf-8"?>
<!-- Generator: Adobe Illustrator 16.0.0, SVG Export Plug-In . SVG Version: 6.00 Build 0)  -->
<!DOCTYPE svg PUBLIC "-//W3C//DTD SVG 1.1//EN" "http://www.w3.org/Graphics/SVG/1.1/DTD/svg11.dtd">
<svg version="1.1" id="Layer_1" xmlns="http://www.w3.org/2000/svg" xmlns:xlink="http://www.w3.org/1999/xlink" x="0px" y="0px"
	 width="300px" height="300px" viewBox="0 0 300 300" enable-background="new 0 0 300 300" xml:space="preserve">
<path fill="#5E5F5F" d="M62.305,215.156v68.406h175.819v-68.406H62.305z M95.698,256.301c-3.777,0-6.84-3.064-6.84-6.844
	c0-3.775,3.063-6.84,6.84-6.84c3.778,0,6.841,3.064,6.841,6.84C102.539,253.236,99.476,256.301,95.698,256.301z M205.988,252.717
	h-85.933c-1.73,0-3.133-1.404-3.133-3.135s1.403-3.133,3.133-3.133h85.933c1.731,0,3.135,1.402,3.135,3.133
	S207.72,252.717,205.988,252.717z"/>
<g>
	<g>
		<g>
			<path fill="#5E5F5F" d="M127.326,160.232v-45.419h7.658v45.419H127.326z M134.983,167.803v-7.57h22.972v7.57H134.983z
				 M165.612,167.803v-7.57h-7.657v-7.57h7.657v-37.849h7.657v52.989H165.612z"/>
			<path fill="#5E5F5F" d="M173.77,168.303h-8.657v-7.57h-6.657v7.57h-23.972v-7.57h-7.658v-46.419h8.658v45.419h21.972v-7.57h7.657
				v-37.849h8.657V168.303z M166.112,167.303h6.657v-51.989h-6.657v37.849h-7.657v6.57h7.657V167.303z M135.483,167.303h21.972
				v-6.57h-21.972V167.303z M127.826,159.732h6.658v-44.419h-6.658V159.732z"/>
		</g>
	</g>
</g>
<rect x="122.757" y="35.471" fill="#8BCFB7" width="19.221" height="19.115"/>
<rect x="141.895" y="35.471" fill="#EFA02E" width="19.078" height="19.117"/>
<rect x="160.973" y="54.586" fill="#EFE564" width="19.026" height="19.129"/>
<rect x="179.951" y="35.471" fill="#83D2E6" width="19.222" height="19.115"/>
<rect x="122.757" y="54.586" fill="#C1A9D2" width="19.137" height="19.059"/>
<rect x="179.951" y="73.629" fill="#8BCFB7" width="19.176" height="19.522"/>
<rect x="103.576" y="54.645" fill="#83D2E6" width="19.182" height="19"/>
<rect x="141.895" y="17.336" fill="#EC5958" width="19.078" height="18.134"/>
<rect x="199.173" y="54.586" fill="#69BAE8" width="19.231" height="19.116"/>
<rect x="141.895" y="73.629" fill="#D7EACF" width="19.078" height="19.788"/>
<rect x="218.453" y="73.645" fill="#C1A9D2" width="19.671" height="19.593"/>
<rect x="199.127" y="112.237" fill="#B357A1" width="19.326" height="19.117"/>
<rect x="199.127" y="93.237" fill="#F06498" width="19.326" height="19"/>
<rect x="238.124" y="35.625" fill="#91B0DC" width="19.34" height="18.711"/>
<polygon fill="#5E5F5F" points="103.576,73.645 62.305,73.645 62.305,205.576 238.124,205.576 238.124,93.237 218.453,93.237 
	218.453,186.395 82.041,186.395 82.041,93.152 103.423,93.152 "/>
</svg>
